<svg width="660" height="144" viewBox="0 0 660 144" fill="none" xmlns="http://www.w3.org/2000/svg">
<rect width="660" height="144" fill="white"/>
<path d="M169.675 96.75C165.875 96.75 162.5 95.95 159.55 94.35C156.6 92.7 154.25 90.45 152.5 87.6C150.8 84.75 149.95 81.5 149.95 77.85C149.95 74.25 150.775 71.05 152.425 68.25C154.125 65.4 156.425 63.15 159.325 61.5C162.225 59.8 165.45 58.95 169 58.95C172.5 58.95 175.575 59.75 178.225 61.35C180.925 62.9 183.025 65.05 184.525 67.8C186.075 70.5 186.85 73.575 186.85 77.025C186.85 77.675 186.8 78.35 186.7 79.05C186.65 79.7 186.525 80.45 186.325 81.3L155.875 81.375V74.025L181.75 73.95L177.775 77.025C177.675 74.875 177.275 73.075 176.575 71.625C175.925 70.175 174.95 69.075 173.65 68.325C172.4 67.525 170.85 67.125 169 67.125C167.05 67.125 165.35 67.575 163.9 68.475C162.45 69.325 161.325 70.55 160.525 72.15C159.775 73.7 159.4 75.55 159.4 77.7C159.4 79.9 159.8 81.825 160.6 83.475C161.45 85.075 162.65 86.325 164.2 87.225C165.75 88.075 167.55 88.5 169.6 88.5C171.45 88.5 173.125 88.2 174.625 87.6C176.125 86.95 177.425 86 178.525 84.75L184.3 90.525C182.55 92.575 180.4 94.125 177.85 95.175C175.35 96.225 172.625 96.75 169.675 96.75ZM217.301 96V75.225C217.301 73.075 216.626 71.325 215.276 69.975C213.926 68.625 212.176 67.95 210.026 67.95C208.626 67.95 207.376 68.25 206.276 68.85C205.176 69.45 204.301 70.3 203.651 71.4C203.051 72.5 202.751 73.775 202.751 75.225L198.926 73.275C198.926 70.425 199.526 67.95 200.726 65.85C201.976 63.7 203.676 62.025 205.826 60.825C208.026 59.625 210.501 59.025 213.251 59.025C215.901 59.025 218.276 59.7 220.376 61.05C222.476 62.35 224.126 64.075 225.326 66.225C226.526 68.325 227.126 70.6 227.126 73.05V96H217.301ZM192.926 96V59.775H202.751V96H192.926ZM239.926 96V44.7H249.751V96H239.926ZM231.451 68.4V59.775H258.226V68.4H231.451ZM280.197 96.75C276.397 96.75 273.022 95.95 270.072 94.35C267.122 92.7 264.772 90.45 263.022 87.6C261.322 84.75 260.472 81.5 260.472 77.85C260.472 74.25 261.297 71.05 262.947 68.25C264.647 65.4 266.947 63.15 269.847 61.5C272.747 59.8 275.972 58.95 279.522 58.95C283.022 58.95 286.097 59.75 288.747 61.35C291.447 62.9 293.547 65.05 295.047 67.8C296.597 70.5 297.372 73.575 297.372 77.025C297.372 77.675 297.322 78.35 297.222 79.05C297.172 79.7 297.047 80.45 296.847 81.3L266.397 81.375V74.025L292.272 73.95L288.297 77.025C288.197 74.875 287.797 73.075 287.097 71.625C286.447 70.175 285.472 69.075 284.172 68.325C282.922 67.525 281.372 67.125 279.522 67.125C277.572 67.125 275.872 67.575 274.422 68.475C272.972 69.325 271.847 70.55 271.047 72.15C270.297 73.7 269.922 75.55 269.922 77.7C269.922 79.9 270.322 81.825 271.122 83.475C271.972 85.075 273.172 86.325 274.722 87.225C276.272 88.075 278.072 88.5 280.122 88.5C281.972 88.5 283.647 88.2 285.147 87.6C286.647 86.95 287.947 86 289.047 84.75L294.822 90.525C293.072 92.575 290.922 94.125 288.372 95.175C285.872 96.225 283.147 96.75 280.197 96.75ZM303.449 96V59.775H313.274V96H303.449ZM313.274 75.975L309.449 73.425C309.899 68.975 311.199 65.475 313.349 62.925C315.499 60.325 318.599 59.025 322.649 59.025C324.399 59.025 325.974 59.325 327.374 59.925C328.774 60.475 330.049 61.4 331.199 62.7L325.049 69.75C324.499 69.15 323.824 68.7 323.024 68.4C322.274 68.1 321.399 67.95 320.399 67.95C318.299 67.95 316.574 68.625 315.224 69.975C313.924 71.275 313.274 73.275 313.274 75.975ZM354.603 96.75C352.003 96.75 349.653 96.225 347.553 95.175C345.453 94.075 343.778 92.6 342.528 90.75C341.278 88.9 340.603 86.775 340.503 84.375V71.55C340.603 69.15 341.278 67.025 342.528 65.175C343.828 63.275 345.503 61.775 347.553 60.675C349.653 59.575 352.003 59.025 354.603 59.025C357.953 59.025 360.953 59.85 363.603 61.5C366.253 63.15 368.328 65.4 369.828 68.25C371.378 71.1 372.153 74.325 372.153 77.925C372.153 81.475 371.378 84.675 369.828 87.525C368.328 90.375 366.253 92.625 363.603 94.275C360.953 95.925 357.953 96.75 354.603 96.75ZM334.503 111.15V59.775H344.328V69.3L342.678 78.075L344.253 86.85V111.15H334.503ZM352.878 87.675C354.678 87.675 356.278 87.275 357.678 86.475C359.078 85.625 360.153 84.475 360.903 83.025C361.703 81.525 362.103 79.8 362.103 77.85C362.103 75.95 361.703 74.275 360.903 72.825C360.153 71.325 359.078 70.175 357.678 69.375C356.278 68.525 354.678 68.1 352.878 68.1C351.128 68.1 349.553 68.525 348.153 69.375C346.753 70.175 345.653 71.325 344.853 72.825C344.103 74.275 343.728 75.95 343.728 77.85C343.728 79.8 344.103 81.525 344.853 83.025C345.653 84.475 346.728 85.625 348.078 86.475C349.478 87.275 351.078 87.675 352.878 87.675ZM378.595 96V59.775H388.42V96H378.595ZM388.42 75.975L384.595 73.425C385.045 68.975 386.345 65.475 388.495 62.925C390.645 60.325 393.745 59.025 397.795 59.025C399.545 59.025 401.12 59.325 402.52 59.925C403.92 60.475 405.195 61.4 406.345 62.7L400.195 69.75C399.645 69.15 398.97 68.7 398.17 68.4C397.42 68.1 396.545 67.95 395.545 67.95C393.445 67.95 391.72 68.625 390.37 69.975C389.07 71.275 388.42 73.275 388.42 75.975ZM409.796 96V59.775H419.696V96H409.796ZM414.746 53.925C413.146 53.925 411.821 53.4 410.771 52.35C409.721 51.25 409.196 49.9 409.196 48.3C409.196 46.75 409.721 45.425 410.771 44.325C411.821 43.225 413.146 42.675 414.746 42.675C416.396 42.675 417.721 43.225 418.721 44.325C419.771 45.425 420.296 46.75 420.296 48.3C420.296 49.9 419.771 51.25 418.721 52.35C417.721 53.4 416.396 53.925 414.746 53.925ZM440.85 96.825C438.8 96.825 436.775 96.55 434.775 96C432.825 95.45 431.025 94.7 429.375 93.75C427.725 92.75 426.3 91.55 425.1 90.15L430.95 84.225C432.2 85.625 433.65 86.675 435.3 87.375C436.95 88.075 438.775 88.425 440.775 88.425C442.375 88.425 443.575 88.2 444.375 87.75C445.225 87.3 445.65 86.625 445.65 85.725C445.65 84.725 445.2 83.95 444.3 83.4C443.45 82.85 442.325 82.4 440.925 82.05C439.525 81.65 438.05 81.225 436.5 80.775C435 80.275 433.55 79.65 432.15 78.9C430.75 78.1 429.6 77.025 428.7 75.675C427.85 74.275 427.425 72.475 427.425 70.275C427.425 67.975 427.975 65.975 429.075 64.275C430.225 62.575 431.85 61.25 433.95 60.3C436.05 59.35 438.525 58.875 441.375 58.875C444.375 58.875 447.075 59.4 449.475 60.45C451.925 61.5 453.95 63.075 455.55 65.175L449.625 71.1C448.525 69.75 447.275 68.775 445.875 68.175C444.525 67.575 443.05 67.275 441.45 67.275C440 67.275 438.875 67.5 438.075 67.95C437.325 68.4 436.95 69.025 436.95 69.825C436.95 70.725 437.375 71.425 438.225 71.925C439.125 72.425 440.275 72.875 441.675 73.275C443.075 73.625 444.525 74.05 446.025 74.55C447.575 75 449.025 75.65 450.375 76.5C451.775 77.35 452.9 78.475 453.75 79.875C454.65 81.275 455.1 83.075 455.1 85.275C455.1 88.825 453.825 91.65 451.275 93.75C448.725 95.8 445.25 96.825 440.85 96.825ZM479.05 96.75C475.25 96.75 471.875 95.95 468.925 94.35C465.975 92.7 463.625 90.45 461.875 87.6C460.175 84.75 459.325 81.5 459.325 77.85C459.325 74.25 460.15 71.05 461.8 68.25C463.5 65.4 465.8 63.15 468.7 61.5C471.6 59.8 474.825 58.95 478.375 58.95C481.875 58.95 484.95 59.75 487.6 61.35C490.3 62.9 492.4 65.05 493.9 67.8C495.45 70.5 496.225 73.575 496.225 77.025C496.225 77.675 496.175 78.35 496.075 79.05C496.025 79.7 495.9 80.45 495.7 81.3L465.25 81.375V74.025L491.125 73.95L487.15 77.025C487.05 74.875 486.65 73.075 485.95 71.625C485.3 70.175 484.325 69.075 483.025 68.325C481.775 67.525 480.225 67.125 478.375 67.125C476.425 67.125 474.725 67.575 473.275 68.475C471.825 69.325 470.7 70.55 469.9 72.15C469.15 73.7 468.775 75.55 468.775 77.7C468.775 79.9 469.175 81.825 469.975 83.475C470.825 85.075 472.025 86.325 473.575 87.225C475.125 88.075 476.925 88.5 478.975 88.5C480.825 88.5 482.5 88.2 484 87.6C485.5 86.95 486.8 86 487.9 84.75L493.675 90.525C491.925 92.575 489.775 94.125 487.225 95.175C484.725 96.225 482 96.75 479.05 96.75ZM519.326 96.75C515.876 96.75 512.751 95.95 509.951 94.35C507.201 92.7 505.001 90.475 503.351 87.675C501.751 84.875 500.951 81.75 500.951 78.3C500.951 74.85 501.751 71.75 503.351 69C505.001 66.2 507.201 64 509.951 62.4C512.751 60.8 515.876 60 519.326 60C521.976 60 524.451 60.5 526.751 61.5C529.051 62.5 531.001 63.9 532.601 65.7L529.151 69.225C527.951 67.875 526.501 66.85 524.801 66.15C523.101 65.4 521.276 65.025 519.326 65.025C516.826 65.025 514.601 65.6 512.651 66.75C510.701 67.9 509.176 69.475 508.076 71.475C506.976 73.425 506.426 75.7 506.426 78.3C506.426 80.85 506.976 83.15 508.076 85.2C509.176 87.2 510.701 88.775 512.651 89.925C514.601 91.075 516.826 91.65 519.326 91.65C521.326 91.65 523.176 91.3 524.876 90.6C526.576 89.85 528.026 88.8 529.226 87.45L532.751 90.975C531.101 92.825 529.101 94.25 526.751 95.25C524.451 96.25 521.976 96.75 519.326 96.75ZM565.767 96V75.3C565.767 72.2 564.842 69.7 562.992 67.8C561.192 65.85 558.792 64.875 555.792 64.875C553.742 64.875 551.942 65.325 550.392 66.225C548.842 67.125 547.617 68.35 546.717 69.9C545.817 71.45 545.367 73.225 545.367 75.225L542.967 73.875C542.967 71.225 543.592 68.85 544.842 66.75C546.092 64.65 547.767 63 549.867 61.8C552.017 60.6 554.467 60 557.217 60C559.917 60 562.317 60.625 564.417 61.875C566.517 63.075 568.142 64.75 569.292 66.9C570.492 69.05 571.092 71.55 571.092 74.4V96H565.767ZM540.117 96V42.9H545.367V96H540.117ZM596.213 96.75C592.863 96.75 589.863 95.95 587.213 94.35C584.563 92.7 582.463 90.5 580.913 87.75C579.413 85 578.663 81.9 578.663 78.45C578.663 74.95 579.413 71.825 580.913 69.075C582.463 66.275 584.563 64.075 587.213 62.475C589.863 60.825 592.838 60 596.138 60C598.838 60 601.238 60.55 603.338 61.65C605.488 62.7 607.213 64.2 608.513 66.15C609.863 68.05 610.688 70.275 610.988 72.825V83.85C610.688 86.4 609.863 88.65 608.513 90.6C607.213 92.55 605.488 94.075 603.338 95.175C601.238 96.225 598.863 96.75 596.213 96.75ZM597.038 91.725C600.688 91.725 603.613 90.5 605.813 88.05C608.063 85.6 609.188 82.375 609.188 78.375C609.188 75.725 608.663 73.4 607.613 71.4C606.613 69.35 605.188 67.775 603.338 66.675C601.538 65.525 599.413 64.95 596.963 64.95C594.463 64.95 592.238 65.525 590.288 66.675C588.388 67.825 586.863 69.425 585.713 71.475C584.613 73.475 584.063 75.775 584.063 78.375C584.063 80.975 584.613 83.275 585.713 85.275C586.863 87.275 588.413 88.85 590.363 90C592.313 91.15 594.538 91.725 597.038 91.725ZM608.888 96V86.55L609.938 77.85L608.888 69.375V60.75H614.138V96H608.888ZM624.785 96V60.75H630.11V96H624.785ZM627.41 53.1C626.41 53.1 625.56 52.75 624.86 52.05C624.16 51.3 623.81 50.425 623.81 49.425C623.81 48.375 624.16 47.5 624.86 46.8C625.56 46.1 626.41 45.75 627.41 45.75C628.51 45.75 629.385 46.1 630.035 46.8C630.735 47.5 631.085 48.375 631.085 49.425C631.085 50.425 630.735 51.3 630.035 52.05C629.385 52.75 628.51 53.1 627.41 53.1Z" fill="#121212"/>
<path fill-rule="evenodd" clip-rule="evenodd" d="M27.4963 59.4948V78.5394C27.4963 97.6487 42.7531 113.14 61.5733 113.14H70.4626C89.2828 113.14 104.54 97.6487 104.54 78.5394V59.4948H27.4963ZM23.6489 53.9141C22.7382 53.9141 22 54.6636 22 55.5883V78.5394C22 100.731 39.7176 118.721 61.5733 118.721H70.4626C92.3183 118.721 110.036 100.731 110.036 78.5394V55.5883C110.036 54.6636 109.298 53.9141 108.387 53.9141H23.6489Z" fill="#121212"/>
<mask id="path-4-inside-1_3604_1859" fill="white">
<path fill-rule="evenodd" clip-rule="evenodd" d="M118.335 68.2555H107.938V92.648C113.939 90.9644 118.335 85.4913 118.335 78.9996V68.2555ZM107.938 101.45C118.762 99.6133 127 90.2608 127 78.9996V62.2387C127 60.8146 125.836 59.6602 124.4 59.6602H99.2739V101.777H104.039C105.368 101.777 106.671 101.665 107.938 101.45Z"/>
</mask>
<path fill-rule="evenodd" clip-rule="evenodd" d="M118.335 68.2555H107.938V92.648C113.939 90.9644 118.335 85.4913 118.335 78.9996V68.2555ZM107.938 101.45C118.762 99.6133 127 90.2608 127 78.9996V62.2387C127 60.8146 125.836 59.6602 124.4 59.6602H99.2739V101.777H104.039C105.368 101.777 106.671 101.665 107.938 101.45Z" fill="#121212"/>
<path d="M107.938 68.2555V58.2555H97.9383V68.2555H107.938ZM118.335 68.2555H128.335V58.2555H118.335V68.2555ZM107.938 92.648H97.9383V105.84L110.64 102.276L107.938 92.648ZM107.938 101.45L109.611 111.309L109.611 111.309L107.938 101.45ZM99.2739 59.6602V49.6602H89.2739V59.6602H99.2739ZM99.2739 101.777H89.2739V111.777H99.2739V101.777ZM107.938 78.2555H118.335V58.2555H107.938V78.2555ZM117.938 92.648V68.2555H97.9383V92.648H117.938ZM108.335 78.9996C108.335 80.845 107.081 82.5022 105.237 83.0198L110.64 102.276C120.796 99.4265 128.335 90.1377 128.335 78.9996H108.335ZM108.335 68.2555V78.9996H128.335V68.2555H108.335ZM117 78.9996C117 85.2447 112.419 90.5468 106.265 91.591L109.611 111.309C125.105 108.68 137 95.277 137 78.9996H117ZM117 62.2387V78.9996H137V62.2387H117ZM124.4 69.6602C120.389 69.6602 117 66.4127 117 62.2387H137C137 55.2165 131.283 49.6602 124.4 49.6602V69.6602ZM104.039 91.7772H99.2739V111.777H104.039V91.7772ZM106.265 91.591C105.549 91.7127 104.805 91.7772 104.039 91.7772V111.777C105.931 111.777 107.794 111.618 109.611 111.309L106.265 91.591ZM99.2739 69.6602H124.4V49.6602H99.2739V69.6602ZM109.274 101.777V59.6602H89.2739V101.777H109.274Z" fill="#121212" mask="url(#path-4-inside-1_3604_1859)"/>
<path d="M29.3921 79.1963V61.2891H102.992V79.1963C102.992 97.0529 88.4309 111.574 70.4126 111.574H61.9713C43.9529 111.574 29.3921 97.0529 29.3921 79.1963Z" fill="#121212" stroke="#121212" stroke-width="10"/>
<path d="M60.8768 35.068C60.8798 34.8931 60.7726 34.8038 60.6026 34.7573C58.0175 34.2625 57.9549 34.2906 57.4865 31.7461C57.4585 31.5707 57.3516 31.4669 57.1652 31.4638C56.9789 31.4607 56.8684 31.5609 56.8343 31.7353C56.2472 34.2477 56.1864 34.1737 53.6156 34.6413C53.4441 34.6822 53.3338 34.7679 53.3308 34.9428C53.3278 35.1177 53.435 35.2069 53.605 35.2535C56.158 35.8061 56.2217 35.7197 56.7211 38.2647C56.7493 38.4255 56.856 38.5439 57.0423 38.547C57.2287 38.5501 57.3394 38.4353 57.3732 38.2755C57.9607 35.7486 57.9912 35.7782 60.592 35.3694C60.7635 35.3285 60.8738 35.2429 60.8768 35.068Z" fill="#121212" stroke="#121212" stroke-width="0.00141"/>
<path d="M79.3972 34.3067C79.6822 34.3067 79.8249 34.1405 79.8961 33.8793C80.6326 29.9135 80.5852 29.8185 84.7192 29.0348C85.0043 28.9874 85.1706 28.8211 85.1706 28.5361C85.1706 28.2512 85.0043 28.085 84.7192 28.0374C80.6089 27.2064 80.7277 27.1114 79.8961 23.1931C79.8249 22.9319 79.6822 22.7656 79.3972 22.7656C79.112 22.7656 78.9695 22.9319 78.8982 23.1931C78.0667 27.1114 78.2092 27.2064 74.0752 28.0374C73.8138 28.085 73.6238 28.2512 73.6238 28.5361C73.6238 28.8211 73.8138 28.9874 74.0752 29.0348C78.2092 29.8661 78.1617 29.9135 78.8982 33.8793C78.9695 34.1405 79.112 34.3067 79.3972 34.3067ZM67.8979 50.6447C68.3493 50.6447 68.6582 50.3597 68.7056 49.9323C69.561 43.5918 69.7748 43.5918 76.3323 42.3333C76.76 42.2619 77.0688 41.977 77.0688 41.5258C77.0688 41.0984 76.76 40.7896 76.3323 40.7184C69.7748 39.8161 69.5372 39.6023 68.7056 33.1431C68.6582 32.7157 68.3493 32.407 67.8979 32.407C67.4702 32.407 67.1613 32.7157 67.1138 33.1669C66.3298 39.531 65.9971 39.5073 59.4872 40.7184C59.0595 40.8135 58.7506 41.0984 58.7506 41.5258C58.7506 42.0007 59.0595 42.2619 59.5822 42.3333C66.0446 43.3781 66.3298 43.5443 67.1138 49.8848C67.1613 50.3597 67.4702 50.6447 67.8979 50.6447Z" fill="#121212" stroke="#121212" stroke-width="0.00141"/>
<path d="M66.2431 29.4617C66.3305 29.4617 66.3742 29.4118 66.3961 29.3334C66.6218 28.1439 66.6073 28.1155 67.8745 27.8804C67.9619 27.8662 68.0129 27.8163 68.0129 27.7308C68.0129 27.6454 67.9619 27.5955 67.8745 27.5812C66.6146 27.332 66.651 27.3035 66.3961 26.1282C66.3742 26.0499 66.3305 26 66.2431 26C66.1557 26 66.112 26.0499 66.0902 26.1282C65.8353 27.3035 65.879 27.332 64.6118 27.5812C64.5317 27.5955 64.4734 27.6454 64.4734 27.7308C64.4734 27.8163 64.5317 27.8662 64.6118 27.8804C65.879 28.1297 65.8644 28.1439 66.0902 29.3334C66.112 29.4118 66.1557 29.4617 66.2431 29.4617Z" fill="#121212" stroke="#121212" stroke-width="0.00141"/>
<path d="M61.5223 24.7694C61.6679 24.7694 61.7408 24.6863 61.7772 24.5557C62.1535 22.5732 62.1292 22.5258 64.2412 22.134C64.3869 22.1103 64.4719 22.0272 64.4719 21.8847C64.4719 21.7423 64.3869 21.6591 64.2412 21.6354C62.1413 21.22 62.202 21.1724 61.7772 19.2137C61.7408 19.0831 61.6679 19 61.5223 19C61.3766 19 61.3038 19.0831 61.2674 19.2137C60.8426 21.1724 60.9154 21.22 58.8034 21.6354C58.6699 21.6591 58.5728 21.7423 58.5728 21.8847C58.5728 22.0272 58.6699 22.1103 58.8034 22.134C60.9154 22.5495 60.8911 22.5732 61.2674 24.5557C61.3038 24.6863 61.3766 24.7694 61.5223 24.7694Z" fill="#121212" stroke="#121212" stroke-width="0.00141"/>
</svg>
